<?xml version="1.0" encoding="UTF-8"?>
<svg width="512pt" height="512pt" version="1.1" viewBox="0 0 512 512" xmlns="http://www.w3.org/2000/svg">
 <path d="m480.53 256c0-125.59-100.72-227.76-224.53-227.76s-224.53 102.17-224.53 227.76 100.72 227.76 224.53 227.76c82.977 0 158.9-46.266 198.13-120.7l0.60547-0.98828-0.070312-0.046874c16.918-32.496 25.859-69.141 25.859-106.02zm-214.59-215.57c-1.2695-1.0898-2.6641-2.0898-4.168-3 5.4883 0.14844 10.98 0.50781 16.434 1.0742-4.6836 0.65234-8.9844 1.3555-12.266 1.9258zm58.559 90.227-13.297 81.988c-0.09375-0.003906-0.1875-0.011719-0.26953-0.003906l-0.57813 0.046875c-7.9414 1.1328-66.121 20.949-84.594 27.289l-69.895-56.156c6.2656-31.238 15.387-66.719 20.055-71.387 6.4531-6.4531 58.848-31.379 84.137-31.379 2.7227 0 5.0391 0.29688 6.7734 0.84375 6.7734 3.1758 33.777 26.723 57.668 48.758zm-119.38 208.33c3.8516-18.328 16-75.719 19.957-89.164l1.2578-0.43359c29.395-10.102 75.812-25.66 84.512-27.551 2.4258 1.0391 8.7305 5.5469 16.988 12.145 14.539 12.57 33.727 30.383 45.113 41.43 2.3867 2.7148 4.2812 5.0938 5.5234 6.875 6.9375 18.223-6.3555 55.973-12.738 74.113l-3.5938 10.102c-1.2891 1.0352-3.2734 2.5859-9.6406 5.3164-20.742 8.8672-64.297 21.105-80.727 22.695-13.348-6.4609-43.285-34.082-57.754-47.434-3.707-3.4062-6.9297-6.3828-8.8984-8.0938zm200.15-208.18-1.6133 3.7109c-13.426-4.9609-29.688-7.2695-51.102-7.2695-5.9297 0-11.348 0.16797-16.129 0.31641l-1.4453 0.066406-0.44922-0.09375c-6.2305-5.7891-52.957-49.055-64.184-54.047l-0.36719-0.14453c-0.97656-0.32812-2.0586-0.58984-3.3633-0.80859 1.1562-8.4922 2.8398-18.984 3.625-23.781 8.7812-1.5859 24.816-4.1133 38.098-4.1133 1.1016 0 2.1875 0.015625 3.043 0.019531 35.875 9.6914 68.926 28.883 95.586 55.492 5.0312 11.641 0.96875 23.109-1.6992 30.652zm-239.21-19.48c-7.8594 16.098-16.656 58.32-19.309 71.633-6.8555 4.8398-38.258 27.867-63.258 60.668-3.5586-1.6797-20.879-10.32-31.277-23.812l-0.32812-1.3008c-1.8672-7.332-4.4297-17.367 3.3398-41.793 3.457-8.9805 7.5625-17.848 12.207-26.363l68.551-55.242c8.7422 3.9922 23.551 11.094 30.074 16.211zm-84.988 141.07c13.344 56.52 21.684 76.535 30.668 89.859-8.1211 12.008-14.188 44.105-15.297 50.309-3.9102-1.1914-8.668-3.6719-14.152-7.3867-27.293-37.711-41.723-82.379-41.723-129.18 0-4.707 0.16406-9.6367 0.49609-14.66 2.0156-4.832 4.8008-8.5195 8.2852-10.961 7.0195 8.0117 22.777 18.969 31.723 22.016zm36.812 97.234c2.7383 0.46094 6.3945 0.92578 10.32 1.3203 5.1953 1.0156 11.406 1.5273 18.461 1.5273 1.7461 0 3.5078-0.03125 5.2344-0.085937 2.082 0.046875 4.1992 0.070313 6.3281 0.070313 12.551 0 30.039-0.89063 42.594-5.1133 1.7773 1.6016 4.1914 3.8281 7.0156 6.4297 15.133 13.969 43.137 39.809 58.32 48.066-2.0312 12.09-8.6016 33.141-12.348 44.656-2.3047 5.1758-9.5898 7.8633-22.859 8.457l-64.688-1.7852c-22.223-6.1992-52.566-42.449-61.797-55.113 1.4805-11.242 6.7461-38.02 13.418-48.43zm71.137 113.8c8.4141 0.36719 19.934 0.86719 31.457 0.86719 18.355 0 31.078-1.2461 38.859-3.8047 0.41797 0.21875 1.2305 0.625 2.8125 1.3828 12.477 4.5117 24.012 6.7031 35.266 6.7031 4.2539 0 8.3398-0.3125 12.242-0.79297-17.484 4.5703-35.477 6.8867-53.668 6.8867-23.254 0-46.168-3.793-68.188-11.289 0.40625 0.007812 0.8125 0.023437 1.2188 0.046875zm182.26-22.812c14.324-13.195 22.395-27.438 25.395-32.738l0.35156-0.62109c1.4961-1.0938 3.8008-2.7539 6.6406-4.7969 7.6562-5.5078 18.707-13.465 28.652-20.98-16.289 23.504-37.16 43.707-61.039 59.137zm-0.074219-71.875c0.51172-1.75 1.7031-5.3203 3.1133-9.3203 6.7539-19.176 19.25-54.68 13.809-76.566 19.035-8.5859 45.848-36.98 52.438-45.598 20.824 7.332 27.02 39.797 27.258 40.953-1.1367 18.18-9.3594 47.574-16.016 68.93-1.6836 3.7109-3.5156 7.4688-5.3516 11.008-2.7578 3.3398-15.609 12.602-29.215 22.41-8.4375 6.082-17.156 12.363-24.121 17.703-5.4688-7.2773-15.082-19.758-22.031-27.051-0.019532 0-0.4375-0.58203 0.11719-2.4688zm100.22-112.75c0 0.98438-0.011719 1.9609-0.027344 2.9336-4.4922-10.859-12.199-23.332-24.969-29.113-1.043-14.879-9.2227-61.68-33.66-92.867 0.26562-0.875 0.6875-2.0469 1.043-3.0625 0.22656-0.63672 0.46484-1.2969 0.72266-1.9883 1.8281-4.9805 4.2617-11.605 4.0312-19.219 34.109 39.824 52.859 90.602 52.859 143.32zm-320.22-190.99-15.059 16.746-52.328 42.977c18.094-24.367 41.203-44.852 67.387-59.723z"/>
</svg>
