<?xml version="1.0" encoding="UTF-8"?>
<svg width="100pt" height="100pt" version="1.1" viewBox="0 0 100 100" xmlns="http://www.w3.org/2000/svg">
 <path d="m22.922 34.254v31.488c0 0.32812 0.30078 0.62891 0.62891 0.62891h52.898c0.32812 0 0.62891-0.30078 0.62891-0.62891v-31.488c0-0.32812-0.30078-0.62891-0.62891-0.62891h-52.898c-0.62891 0-0.62891 0.62891-0.62891 0.62891zm1.2578 0.62891h25.191v9.5039c-2.8242 0.32031-5.0391 2.7227-5.0391 5.6289s2.2148 5.3125 5.0391 5.6289v9.4648h-25.191v-6.9258h7.5586v-16.375h-7.5586zm26.449 0h25.191v6.9258h-7.5586v16.375h7.5586v6.9258h-25.191v-9.4648c2.8242-0.31641 5.0391-2.7188 5.0391-5.6289 0-2.9062-2.2148-5.3086-5.0391-5.6289zm-26.449 8.1875h6.2969v13.855h-6.2969v-3.1484h1.2578v-7.5586h-1.2578zm45.344 0h6.2969v3.1484h-1.2578v7.5586h1.2578v3.1484h-6.2969zm-20.152 2.5781v2.5781c-0.73047 0.26172-1.2578 0.95313-1.2578 1.7695s0.53125 1.5078 1.2578 1.7695v2.5977c-2.1406-0.30469-3.7773-2.1211-3.7773-4.3477s1.6367-4.0625 3.7773-4.3672zm1.2578 0c2.1406 0.30469 3.7773 2.1406 3.7773 4.3672s-1.6406 4.043-3.7773 4.3477v-2.5977c0.72656-0.26172 1.2578-0.95312 1.2578-1.7695 0-0.82031-0.53125-1.5078-1.2578-1.7695z" fill="#fff"/>
</svg>
